# xmcd
#
# Track frame offsets: 
#        180
#        17161
#        33655
#        41694
#        55047
#        67242
#        82145
#        91000
#        104682
#        116136
#        130066
#        139058
#        151984
#        164172
#        175618
#        242983
#
# Disc length: 3742 seconds
#
# Revision: 0
# Processed by: cddbd v1.5.2PL0 Copyright (c) Steve Scherf et al.
# Submitted via: ExactAudioCopy v0.99pb3
#
DISCID=e40e9c10
DTITLE=Various Artist - Glanc Bravure CRO Tambure
DYEAR=1997
DGENRE=Folk
TTITLE0=B.Potocnik - Dohvati crvenu tresnju
TTITLE1=S.Leopold - Lipo ti je kad se kuruz sije
TTITLE2=[trad.] - Zagorski drmes
TTITLE3=[trad.] - Hodi picek
TTITLE4=[trad.] - Bunjevacki plesovi
TTITLE5=B.Potocnik - Pri Slaveku
TTITLE6=Z.Potocnik - Lovranski maroni
TTITLE7=[trad.] - Jedan mali brodic
TTITLE8=D.Rose - Praznik za zice
TTITLE9=H.Warren - Iznad duge
TTITLE10=V.Lisinski - Mazurka u Es-duru
TTITLE11=J.Valinger - Zagrebu
TTITLE12=J.Strauss ml. - Tritsch-Tratsch polka
TTITLE13=W.A.Mozart - Turski mars
TTITLE14=B.Benini - Concertino za tamburaski orkestar i marimbu
TTITLE15=I.Kuljeric - Instrumentalne preobrazbe starohrvatske pucke pj
TTITLE15=esme
EXTD=
EXTT0=
EXTT1=
EXTT2=
EXTT3=
EXTT4=
EXTT5=
EXTT6=
EXTT7=
EXTT8=
EXTT9=
EXTT10=
EXTT11=
EXTT12=
EXTT13=
EXTT14=
EXTT15=
PLAYORDER=
